<?xml version="1.0" encoding="utf-8"?>
<!-- Generator: Adobe Illustrator 17.1.0, SVG Export Plug-In . SVG Version: 6.00 Build 0)  -->
<!DOCTYPE svg PUBLIC "-//W3C//DTD SVG 1.1//EN" "http://www.w3.org/Graphics/SVG/1.1/DTD/svg11.dtd">
<svg version="1.1" id="Layer_1" xmlns="http://www.w3.org/2000/svg" xmlns:xlink="http://www.w3.org/1999/xlink" x="0px" y="0px"
	 viewBox="0 0 50 50" enable-background="new 0 0 50 50" xml:space="preserve">
<path fill="#FFFFFF" d="M36.106,7.013H14.021c-3.835,0-6.957,3.118-6.957,6.952v7.342v14.729c0,3.834,3.122,6.952,6.957,6.952
	h22.085c3.835,0,6.958-3.118,6.958-6.952V21.307v-7.342C43.064,10.131,39.941,7.013,36.106,7.013z M38.102,11.16l0.795-0.004v0.793
	v5.304l-6.081,0.023l-0.022-6.099L38.102,11.16z M19.928,21.307c1.149-1.595,3.021-2.641,5.137-2.641
	c2.115,0,3.985,1.046,5.136,2.641c0.751,1.041,1.203,2.312,1.203,3.693c0,3.492-2.845,6.33-6.339,6.33
	c-3.495,0-6.337-2.838-6.337-6.33C18.727,23.619,19.178,22.348,19.928,21.307z M39.557,36.035c0,1.902-1.547,3.446-3.45,3.446
	H14.021c-1.903,0-3.449-1.544-3.449-3.446V21.307h5.374c-0.463,1.143-0.726,2.388-0.726,3.693c0,5.426,4.416,9.837,9.844,9.837
	c5.428,0,9.843-4.411,9.843-9.837c0-1.306-0.264-2.551-0.725-3.693h5.374V36.035z"/>
</svg>
